<svg height="512" viewBox="0 0 64 64" width="512" xmlns="http://www.w3.org/2000/svg"><g id="Bill"><path d="m61 3v54h-16v-18a4 4 0 0 0 -4-4h-17v-32l3.08 2 3.08-2 3.08 2 3.08-2 3.09 2 3.08-2 3.08 2 3.08-2 3.09 2 3.08-2 3.09 2z" fill="#ffcd00"/><path d="m59 4.294v52.706h2v-54z" fill="#ebbf00"/><path d="m43 19h10v-6h-12z" fill="#006df0"/><path d="m45 39a4 4 0 0 0 -4-4h-34a4 4 0 0 0 -4 4v2h42z" fill="#ffdaaa"/><path d="m45 45v12a4 4 0 0 1 -4 4h-34a4 4 0 0 1 -4-4v-12z" fill="#ffdaaa"/><path d="m41 35h-2a4 4 0 0 1 4 4v2h2v-2a4 4 0 0 0 -4-4z" fill="#ffc477"/><path d="m43 45v12a4 4 0 0 1 -4 4h2a4 4 0 0 0 4-4v-12z" fill="#ffc477"/><path d="m3 41h42v4h-42z" fill="#58595b"/><path d="m43 41h2v4h-2z" fill="#414042"/><path d="m9 53h14v4h-14z" fill="#58595b"/><circle cx="45" cy="22" fill="#9bc9ff" r="1"/><circle cx="51" cy="22" fill="#9bc9ff" r="1"/><circle cx="38" cy="54" fill="#f7941d" r="3"/><path d="m45 20h9v-10h2v-2h-4v4h-12.387l2.666 8zm7-6v4h-8.279l-1.334-4z" fill="#005ece"/><g fill="#f1f2f2"><path d="m29 26h27v2h-27z"/><path d="m29 30h27v2h-27z"/><path d="m48 34h8v2h-8z"/><path d="m48 38h8v2h-8z"/><path d="m48 42h8v2h-8z"/><path d="m48 46h8v2h-8z"/><path d="m48 50h8v2h-8z"/></g><path d="m32 20a1 1 0 0 1 -1-1 1 1 0 0 0 -2 0 3 3 0 0 0 2 2.816v1.184a1 1 0 0 0 2 0v-1.184a2.993 2.993 0 0 0 -1-5.816 1 1 0 1 1 1-1 1 1 0 0 0 2 0 3 3 0 0 0 -2-2.816v-1.184a1 1 0 0 0 -2 0v1.184a2.993 2.993 0 0 0 1 5.816 1 1 0 0 1 0 2z" fill="#ff5023"/><circle cx="45" cy="22" fill="#005ece" r="2"/><circle cx="51" cy="22" fill="#005ece" r="2"/><circle cx="33" cy="54" fill="#f15a29" r="3"/></g></svg>