<svg height="512" viewBox="0 0 64 64" width="512" xmlns="http://www.w3.org/2000/svg"><g id="Customer_Service-Headphone-Help-Call_Center-Shopping_Bag" data-name="Customer Service-Headphone-Help-Call Center-Shopping Bag"><path d="m47 5v6h-44v-6a2.006 2.006 0 0 1 2-2h40a1.99 1.99 0 0 1 1.13.35 2.018 2.018 0 0 1 .87 1.65z" fill="#ff5023"/><path d="m47 11v34a2.006 2.006 0 0 1 -2 2h-40a2.006 2.006 0 0 1 -2-2v-34z" fill="#5aaae7"/><path d="m47 11v17.61a12.057 12.057 0 0 1 -3.41-1.47l-5.59 1.86 1.86-5.59a11.991 11.991 0 0 1 -1.86-6.41 11.8 11.8 0 0 1 .69-4 12.529 12.529 0 0 1 .92-2z" fill="#3d9ae2"/><path d="m61 15a12 12 0 0 1 -12 12 11.021 11.021 0 0 1 -2-.18 11.857 11.857 0 0 1 -4.41-1.68l-5.59 1.86 1.86-5.59a11.991 11.991 0 0 1 -1.86-6.41 11.8 11.8 0 0 1 .69-4 11.977 11.977 0 0 1 8.44-7.65 11.811 11.811 0 0 1 2.87-.35 12 12 0 0 1 12 12z" fill="#ffd422"/><path d="m61 40v1h-4a2.006 2.006 0 0 1 -2-2v-4h1z" fill="#bcbec0"/><path d="m61 41v18a2.006 2.006 0 0 1 -2 2h-18a2.006 2.006 0 0 1 -2-2v-22a2.006 2.006 0 0 1 2-2h14v4a2.006 2.006 0 0 0 2 2z" fill="#e6e7e8"/><path d="m57 13v9a2.006 2.006 0 0 1 -2 2h-8a2.006 2.006 0 0 1 -2-2v-9z" fill="#ebbf00"/><path d="m55 11v9a2.006 2.006 0 0 1 -2 2h-8a2.006 2.006 0 0 1 -2-2v-9z" fill="#3d9ae2"/><path d="m37 46.87v.13h-28v-.13a6 6 0 0 1 3.52-5.47l4.1-1.86 3.38-1.54v-3.68a6.868 6.868 0 0 1 -1.95-1.37 6.965 6.965 0 0 1 -1.97-3.95h-3.08a1 1 0 0 1 -1-1v-4a1 1 0 0 1 1-1h3v-1a7 7 0 0 1 14 0v1h3a1 1 0 0 1 1 1v4a1 1 0 0 1 -1 1h-3.08a6.693 6.693 0 0 1 -1.18 3 6.857 6.857 0 0 1 -2.74 2.32v3.68l3.38 1.54 4.1 1.86a6 6 0 0 1 3.52 5.47z" fill="#3d9ae2"/><path d="m32 22v4a1 1 0 0 1 -1 1h-3v-6h3a1 1 0 0 1 1 1z" fill="#ee8700"/><path d="m35 44.87v16.13h-14v-1l3-3-1.19-10-.62-5.19.81-.81-.2-.6 3.2.6 1.38-3.46 4.1 1.86a6 6 0 0 1 3.52 5.47z" fill="#00ccb3"/><path d="m28 21v1h-.56a2.009 2.009 0 0 1 -1.9-1.37l-.54-1.63-1.87 1.4a7.982 7.982 0 0 1 -4.8 1.6h-4.33v-2a7 7 0 0 1 14 0z" fill="#57565c"/><path d="m24 36 3.38 1.54-1.38 3.46-3.2-.6-.8-2.4z" fill="#009986"/><g fill="#ff5023"><path d="m22.81 47 1.19 10-3 3-3-3 1.19-10z"/><path d="m22.8 40.4.2.6-.81.81-1.19 1.19-1.19-1.19-.81-.81.2-.6.8-2.4h2z"/><path d="m22.19 41.81.62 5.19h-3.62l.62-5.19 1.19 1.19z"/></g><path d="m20 38-.8 2.4-3.2.6-1.38-3.46 3.38-1.54z" fill="#009986"/><path d="m14 26v1h-3a1 1 0 0 1 -1-1v-4a1 1 0 0 1 1-1h3z" fill="#ee8700"/><path d="m21 60v1h-14v-16.13a6 6 0 0 1 3.52-5.47l4.1-1.86 1.38 3.46 3.2-.6-.2.6.81.81-.62 5.19-1.19 10z" fill="#00ccb3"/><path d="m24 32v4l-2 2h-2l-2-2v-4z" fill="#ffc477"/><path d="m24 32v2.32a6.958 6.958 0 0 1 -6 0v-2.32z" fill="#ffb655"/><path d="m26.74 30a7.009 7.009 0 0 1 -10.69.95 6.958 6.958 0 0 1 -2.05-4.95v-4h4.33a7.982 7.982 0 0 0 4.8-1.6l1.87-1.4.54 1.63a2.009 2.009 0 0 0 1.9 1.37h.56v4a6.89 6.89 0 0 1 -1.26 4z" fill="#ffc477"/><path d="m23 24h2v2h-2z"/><path d="m17 24h2v2h-2z"/><path d="m6 6h2v2h-2z"/><path d="m10 6h2v2h-2z"/><path d="m14 6h2v2h-2z"/><path d="m56.71 34.29a1.033 1.033 0 0 0 -.71-.29h-8v-6.04c.33.02.67.04 1 .04a13 13 0 0 0 0-26 12.877 12.877 0 0 0 -2.72.29 2.929 2.929 0 0 0 -1.28-.29h-40a3.009 3.009 0 0 0 -3 3v40a3.009 3.009 0 0 0 3 3h1v13a1 1 0 0 0 1 1h28a1 1 0 0 0 1-1v-13h2v11a3.009 3.009 0 0 0 3 3h18a3.009 3.009 0 0 0 3-3v-19a1.033 1.033 0 0 0 -.29-.71zm-.71 2.12 3.59 3.59h-2.59a1 1 0 0 1 -1-1zm-7-32.41a11 11 0 1 1 -5.87 20.29 1.032 1.032 0 0 0 -.54-.16.853.853 0 0 0 -.31.06l-3.7 1.23 1.23-3.7a.982.982 0 0 0 -.1-.85 10.984 10.984 0 0 1 9.29-16.87zm-45 1a1 1 0 0 1 1-1h37.1a13.043 13.043 0 0 0 -5.1 6h-10.03a9.91 9.91 0 0 0 -11.94 0h-11.03zm25 21v-4h2v4zm1 2a1 1 0 0 1 -1 1h-.59a8.361 8.361 0 0 0 .33-1zm-1-8a8 8 0 0 0 -16 0v-2a8 8 0 0 1 16 0zm-4.69 11a5.995 5.995 0 0 1 -9.31-5v-3h3.33a9.032 9.032 0 0 0 5.4-1.8l.76-.57.11.32a2.975 2.975 0 0 0 2.4 2.01v3.04a5.984 5.984 0 0 1 -.81 3h-5.19v2zm1.79 7.05-.72 1.82-1.82-.34-.42-1.26 1.08-1.07zm-4.51-1.05h-1.18l-1.41-1.41v-1.85a7.822 7.822 0 0 0 4 0v1.85zm.27 3.73-.86.86-.86-.86.58-1.73h.56zm-3-2.46-.42 1.26-1.82.34-.72-1.82 1.88-.85zm7.63-17.95-.54-1.64a1.008 1.008 0 0 0 -1.55-.48l-1.87 1.4a7.042 7.042 0 0 1 -4.2 1.4h-3.33v-1a6 6 0 0 1 12 0v.88a1 1 0 0 1 -.51-.56zm-20.49 24.55v1.13h-1a1 1 0 0 1 -1-1v-33h9.02a9.943 9.943 0 0 0 -2.02 6v2a2.006 2.006 0 0 0 -2 2v4a2.006 2.006 0 0 0 2 2h2.26a8.06 8.06 0 0 0 3.74 4.92v2.44l-6.9 3.13a7.032 7.032 0 0 0 -4.1 6.38zm7-22.87v4h-2v-4zm1 38v-14h-2v14h-4v-15.13a5.018 5.018 0 0 1 2.93-4.56l3.15-1.43.99 2.49a1 1 0 0 0 .93.63 1.1 1.1 0 0 0 .18-.02l2.03-.38a1.047 1.047 0 0 0 .08.11l.47.46-1.75 14.71a1.013 1.013 0 0 0 .28.83l2.3 2.29zm5.05-3.36 1.52-12.75a.9.9 0 0 0 .86 0l1.52 12.75-1.95 1.95zm14.95 3.36h-4v-14h-2v14h-5.59l2.3-2.29a1.013 1.013 0 0 0 .28-.83l-1.75-14.71.47-.46a1.047 1.047 0 0 0 .08-.11l2.03.38a1.1 1.1 0 0 0 .18.02 1 1 0 0 0 .93-.63l.99-2.49 3.15 1.43a5.018 5.018 0 0 1 2.93 4.56zm4-23v9h-2v-1.13a7.032 7.032 0 0 0 -4.1-6.38l-6.9-3.13v-2.44a8.1 8.1 0 0 0 2.24-1.92h1.76a3.009 3.009 0 0 0 3-3v-.28a2 2 0 0 0 1-1.72v-4a2.006 2.006 0 0 0 -2-2v-2a9.943 9.943 0 0 0 -2.02-6h7.38a12.854 12.854 0 0 0 1.41 9.53l-1.72 5.15a1 1 0 0 0 .95 1.32 1.185 1.185 0 0 0 .32-.05l5.15-1.72a13.1 13.1 0 0 0 3.53 1.41v6.36h-5a3.009 3.009 0 0 0 -3 3zm22 22a1 1 0 0 1 -1 1h-18a1 1 0 0 1 -1-1v-22a1 1 0 0 1 1-1h13v3a3.009 3.009 0 0 0 3 3h3z"/><path d="m44 44h12v2h-12z"/><path d="m44 48h12v2h-12z"/><path d="m44 52h12v2h-12z"/><path d="m44 40h6v2h-6z"/><path d="m45 23h8a3 3 0 0 0 3-3v-9a1 1 0 0 0 -1-1h-3v-1a3 3 0 0 0 -6 0v1h-3a1 1 0 0 0 -1 1v9a3 3 0 0 0 3 3zm3-14a1 1 0 0 1 2 0v1h-2zm-4 3h2v2h2v-2h2v2h2v-2h2v8a1 1 0 0 1 -1 1h-8a1 1 0 0 1 -1-1z"/></g></svg>